<mxfile host="app.diagrams.net" agent="Mozilla/5.0 (Windows NT 10.0; Win64; x64) AppleWebKit/537.36 (KHTML, like Gecko) Chrome/128.0.0.0 Safari/537.36" version="24.7.8" pages="2">
  <diagram id="zPEed6OxOjPAdNQpRG2N" name="logo">
    <mxGraphModel dx="10387" dy="6369" grid="1" gridSize="10" guides="1" tooltips="1" connect="1" arrows="1" fold="1" page="1" pageScale="1" pageWidth="827" pageHeight="1169" math="0" shadow="0">
      <root>
        <mxCell id="0" />
        <mxCell id="1" parent="0" />
        <mxCell id="fTApBSyJ4Z5HYg82tnDg-4" value="" style="rounded=0;whiteSpace=wrap;html=1;strokeColor=none;fillColor=#414141;fillStyle=auto;" vertex="1" parent="1">
          <mxGeometry x="-400" y="-400" width="3140" height="1400" as="geometry" />
        </mxCell>
        <mxCell id="fTApBSyJ4Z5HYg82tnDg-2" value="&lt;h1 style=&quot;font-size: 400px;&quot;&gt;&lt;font style=&quot;font-size: 400px;&quot;&gt;HOMELAB&lt;/font&gt;&lt;/h1&gt;" style="text;html=1;align=center;verticalAlign=middle;whiteSpace=wrap;rounded=0;fontFamily=Lucida Console;fontColor=#9CD3EF;fontSize=400;strokeColor=none;fillColor=none;movable=1;resizable=1;rotatable=1;deletable=1;editable=1;locked=0;connectable=1;" vertex="1" parent="1">
          <mxGeometry x="640" y="150" width="1700" height="300" as="geometry" />
        </mxCell>
        <mxCell id="fTApBSyJ4Z5HYg82tnDg-3" value="" style="rounded=0;whiteSpace=wrap;html=1;strokeColor=none;fillColor=#414141;fillStyle=auto;" vertex="1" parent="1">
          <mxGeometry width="600" height="600" as="geometry" />
        </mxCell>
        <mxCell id="zuGlKQwFUJOdUV5RILmh-7" value="" style="rounded=1;whiteSpace=wrap;html=1;rotation=90;strokeColor=none;fillColor=#9cd3ef;" vertex="1" parent="1">
          <mxGeometry x="290" y="290" width="20" height="600" as="geometry" />
        </mxCell>
        <mxCell id="6M_WuwpJhLI5Bj3-2skB-1" value="" style="rounded=1;whiteSpace=wrap;html=1;strokeColor=none;fillColor=#9cd3ef;" vertex="1" parent="1">
          <mxGeometry x="20" y="200" width="160" height="360" as="geometry" />
        </mxCell>
        <mxCell id="JKTs2MuyfRl4oTqDqETe-1" value="" style="rounded=1;whiteSpace=wrap;html=1;rotation=90;strokeColor=none;fillColor=#9cd3ef;" vertex="1" parent="1">
          <mxGeometry x="320" y="300" width="160" height="360" as="geometry" />
        </mxCell>
        <mxCell id="JKTs2MuyfRl4oTqDqETe-3" value="" style="rounded=1;whiteSpace=wrap;html=1;rotation=90;strokeColor=none;fillColor=#9cd3ef;" vertex="1" parent="1">
          <mxGeometry x="360" y="100" width="80" height="360" as="geometry" />
        </mxCell>
        <mxCell id="JKTs2MuyfRl4oTqDqETe-4" value="" style="rounded=1;whiteSpace=wrap;html=1;rotation=90;strokeColor=none;fillColor=#9cd3ef;" vertex="1" parent="1">
          <mxGeometry x="390" y="170" width="20" height="360" as="geometry" />
        </mxCell>
        <mxCell id="JKTs2MuyfRl4oTqDqETe-5" value="" style="rounded=1;whiteSpace=wrap;html=1;rotation=90;strokeColor=none;fillColor=#9cd3ef;" vertex="1" parent="1">
          <mxGeometry x="290" y="-130" width="20" height="600" as="geometry" />
        </mxCell>
        <mxCell id="JKTs2MuyfRl4oTqDqETe-6" value="" style="rounded=1;whiteSpace=wrap;html=1;rotation=90;strokeColor=none;fillColor=#9cd3ef;" vertex="1" parent="1">
          <mxGeometry x="290" y="-230" width="20" height="600" as="geometry" />
        </mxCell>
        <mxCell id="JKTs2MuyfRl4oTqDqETe-7" value="" style="rounded=1;whiteSpace=wrap;html=1;rotation=90;strokeColor=none;fillColor=#9cd3ef;" vertex="1" parent="1">
          <mxGeometry x="380" y="-40" width="40" height="120" as="geometry" />
        </mxCell>
        <mxCell id="JKTs2MuyfRl4oTqDqETe-8" value="" style="rounded=1;whiteSpace=wrap;html=1;rotation=90;strokeColor=none;fillColor=#9cd3ef;" vertex="1" parent="1">
          <mxGeometry x="240" y="60" width="40" height="120" as="geometry" />
        </mxCell>
      </root>
    </mxGraphModel>
  </diagram>
  <diagram id="EGkGJ_t0B3l-Swz5pYGq" name="PÃ¡gina-2">
    <mxGraphModel dx="9560" dy="5200" grid="1" gridSize="10" guides="1" tooltips="1" connect="1" arrows="1" fold="1" page="1" pageScale="1" pageWidth="827" pageHeight="1169" math="0" shadow="0">
      <root>
        <mxCell id="0" />
        <mxCell id="1" parent="0" />
        <mxCell id="6bU0KQtbJBkSRcwKctyA-1" value="" style="rounded=0;whiteSpace=wrap;html=1;strokeColor=none;fillColor=#414141;fillStyle=auto;" vertex="1" parent="1">
          <mxGeometry width="3140" height="3140" as="geometry" />
        </mxCell>
        <mxCell id="6bU0KQtbJBkSRcwKctyA-2" value="&lt;h1 style=&quot;font-size: 400px;&quot;&gt;&lt;font style=&quot;font-size: 400px;&quot;&gt;HOMELAB&lt;/font&gt;&lt;/h1&gt;" style="text;html=1;align=center;verticalAlign=middle;whiteSpace=wrap;rounded=0;fontFamily=Lucida Console;fontColor=#9CD3EF;fontSize=400;strokeColor=none;fillColor=none;movable=1;resizable=1;rotatable=1;deletable=1;editable=1;locked=0;connectable=1;" vertex="1" parent="1">
          <mxGeometry x="720" y="2110" width="1700" height="300" as="geometry" />
        </mxCell>
        <mxCell id="6bU0KQtbJBkSRcwKctyA-3" value="" style="group;aspect=fixed;" vertex="1" connectable="0" parent="1">
          <mxGeometry x="970" y="670" width="1200" height="1200" as="geometry" />
        </mxCell>
        <mxCell id="6bU0KQtbJBkSRcwKctyA-4" value="" style="rounded=0;whiteSpace=wrap;html=1;strokeColor=none;fillColor=#414141;fillStyle=auto;" vertex="1" parent="6bU0KQtbJBkSRcwKctyA-3">
          <mxGeometry y="7.105427357601002e-15" width="1200" height="1200" as="geometry" />
        </mxCell>
        <mxCell id="6bU0KQtbJBkSRcwKctyA-5" value="" style="rounded=1;whiteSpace=wrap;html=1;rotation=90;strokeColor=none;fillColor=#9cd3ef;" vertex="1" parent="6bU0KQtbJBkSRcwKctyA-3">
          <mxGeometry x="580" y="580" width="40" height="1200" as="geometry" />
        </mxCell>
        <mxCell id="6bU0KQtbJBkSRcwKctyA-6" value="" style="rounded=1;whiteSpace=wrap;html=1;strokeColor=none;fillColor=#9cd3ef;" vertex="1" parent="6bU0KQtbJBkSRcwKctyA-3">
          <mxGeometry x="40" y="400" width="320" height="720" as="geometry" />
        </mxCell>
        <mxCell id="6bU0KQtbJBkSRcwKctyA-7" value="" style="rounded=1;whiteSpace=wrap;html=1;rotation=90;strokeColor=none;fillColor=#9cd3ef;" vertex="1" parent="6bU0KQtbJBkSRcwKctyA-3">
          <mxGeometry x="640" y="600" width="320" height="720" as="geometry" />
        </mxCell>
        <mxCell id="6bU0KQtbJBkSRcwKctyA-8" value="" style="rounded=1;whiteSpace=wrap;html=1;rotation=90;strokeColor=none;fillColor=#9cd3ef;" vertex="1" parent="6bU0KQtbJBkSRcwKctyA-3">
          <mxGeometry x="720" y="200" width="160" height="720" as="geometry" />
        </mxCell>
        <mxCell id="6bU0KQtbJBkSRcwKctyA-9" value="" style="rounded=1;whiteSpace=wrap;html=1;rotation=90;strokeColor=none;fillColor=#9cd3ef;" vertex="1" parent="6bU0KQtbJBkSRcwKctyA-3">
          <mxGeometry x="780" y="340" width="40" height="720" as="geometry" />
        </mxCell>
        <mxCell id="6bU0KQtbJBkSRcwKctyA-10" value="" style="rounded=1;whiteSpace=wrap;html=1;rotation=90;strokeColor=none;fillColor=#9cd3ef;" vertex="1" parent="6bU0KQtbJBkSRcwKctyA-3">
          <mxGeometry x="580" y="-260" width="40" height="1200" as="geometry" />
        </mxCell>
        <mxCell id="6bU0KQtbJBkSRcwKctyA-11" value="" style="rounded=1;whiteSpace=wrap;html=1;rotation=90;strokeColor=none;fillColor=#9cd3ef;" vertex="1" parent="6bU0KQtbJBkSRcwKctyA-3">
          <mxGeometry x="580" y="-460" width="40" height="1200" as="geometry" />
        </mxCell>
        <mxCell id="6bU0KQtbJBkSRcwKctyA-12" value="" style="rounded=1;whiteSpace=wrap;html=1;rotation=90;strokeColor=none;fillColor=#9cd3ef;" vertex="1" parent="6bU0KQtbJBkSRcwKctyA-3">
          <mxGeometry x="760" y="-80" width="80" height="240" as="geometry" />
        </mxCell>
        <mxCell id="6bU0KQtbJBkSRcwKctyA-13" value="" style="rounded=1;whiteSpace=wrap;html=1;rotation=90;strokeColor=none;fillColor=#9cd3ef;" vertex="1" parent="6bU0KQtbJBkSRcwKctyA-3">
          <mxGeometry x="480" y="120" width="80" height="240" as="geometry" />
        </mxCell>
      </root>
    </mxGraphModel>
  </diagram>
</mxfile>
